<?xml version="1.0" standalone="no"?>
<!DOCTYPE svg PUBLIC "-//W3C//DTD SVG 20010904//EN"
 "http://www.w3.org/TR/2001/REC-SVG-20010904/DTD/svg10.dtd">
<svg version="1.0" xmlns="http://www.w3.org/2000/svg"
 width="471.000000pt" height="80.000000pt" viewBox="0 0 471.000000 80.000000"
 preserveAspectRatio="xMidYMid meet">

<g transform="translate(0.000000,80.000000) scale(0.100000,-0.100000)"
fill="#000000" stroke="none">
<path d="M0 400 l0 -400 2355 0 2355 0 0 400 0 400 -2355 0 -2355 0 0 -400z
m410 250 c0 -19 -7 -20 -93 -20 -104 0 -117 -6 -117 -57 l0 -33 90 0 c83 0 90
-1 90 -20 0 -19 -7 -20 -90 -20 l-89 0 -3 -57 c-2 -44 -7 -58 -18 -58 -24 0
-22 211 2 247 20 31 35 35 146 37 76 1 82 -1 82 -19z m280 0 c0 -19 -7 -20
-90 -20 -110 0 -110 0 -110 -144 0 -88 -3 -106 -15 -106 -12 0 -15 19 -15 113
0 159 14 175 153 176 71 1 77 -1 77 -19z m309 -4 c16 -14 21 -31 21 -65 0 -79
-22 -91 -158 -91 -95 0 -100 -1 -95 -20 10 -37 33 -45 142 -50 85 -4 106 -8
106 -20 0 -12 -18 -16 -87 -18 -159 -5 -193 20 -193 143 0 59 4 79 21 102 27
35 52 42 145 40 60 -2 82 -6 98 -21z m341 4 c0 -18 -8 -20 -111 -22 -94 -3
-114 -6 -123 -20 -8 -13 -8 -23 0 -35 9 -15 30 -19 113 -23 87 -4 105 -8 117
-24 20 -28 18 -89 -5 -117 -18 -22 -27 -24 -135 -27 -112 -4 -116 -3 -116 17
0 20 5 21 108 21 113 0 132 6 132 45 0 42 -15 49 -102 51 -46 1 -91 3 -100 3
-50 3 -66 84 -23 126 23 24 31 25 135 25 103 0 110 -1 110 -20z m102 -41 l3
-62 100 0 100 0 3 61 c2 46 7 62 17 62 13 0 15 -25 15 -145 0 -122 -2 -145
-15 -145 -12 0 -15 14 -15 65 l0 65 -105 0 -105 0 0 -65 c0 -51 -3 -65 -15
-65 -13 0 -15 23 -15 145 0 120 2 145 15 145 10 0 15 -16 17 -61z m598 36 l0
-25 -103 0 c-133 0 -147 -8 -147 -89 0 -89 8 -95 140 -99 107 -4 111 -5 108
-26 -3 -19 -10 -21 -90 -24 -163 -5 -208 26 -208 143 0 74 25 120 72 134 18 5
77 10 131 10 l97 1 0 -25z m316 -8 c30 -35 31 -85 3 -121 -20 -25 -24 -26
-130 -26 -60 0 -109 -4 -109 -8 0 -5 6 -17 14 -28 12 -16 29 -19 125 -22 110
-4 111 -4 111 -28 0 -24 -1 -24 -92 -24 -169 0 -201 21 -206 133 -5 125 35
160 176 155 78 -3 86 -5 108 -31z m112 -77 c2 -84 6 -107 19 -117 11 -8 50
-13 105 -13 l88 0 0 -26 0 -26 -106 4 c-102 3 -107 5 -130 31 -22 26 -24 36
-24 143 0 114 0 115 23 112 21 -3 22 -8 25 -108z m290 0 c2 -84 6 -107 19
-117 11 -8 50 -13 105 -13 l88 0 0 -26 0 -26 -106 4 c-102 3 -107 5 -130 31
-22 26 -24 36 -24 143 0 114 0 115 23 112 21 -3 22 -8 25 -108z m522 85 l0
-25 -109 0 c-112 0 -138 -9 -125 -43 4 -12 27 -16 106 -19 91 -3 102 -5 119
-27 25 -30 25 -92 0 -122 -18 -23 -27 -24 -145 -28 l-126 -3 0 26 0 26 98 0
c126 0 142 5 142 40 0 36 -13 40 -119 40 -71 0 -91 3 -104 18 -37 41 -26 104
23 129 15 8 66 13 133 13 l107 0 0 -25z m394 11 c53 -22 66 -49 66 -139 0 -76
-1 -80 -34 -113 l-34 -34 -106 0 c-124 0 -160 13 -182 65 -19 45 -18 129 2
170 8 18 30 40 47 49 41 20 194 22 241 2z m311 0 c50 -21 68 -63 63 -154 -3
-69 -6 -76 -36 -103 -32 -28 -35 -29 -145 -29 -136 0 -146 5 -118 51 28 45 29
140 2 192 l-19 38 21 9 c36 14 194 12 232 -4z m335 -21 c29 -28 30 -32 30
-113 0 -46 -5 -92 -10 -103 -20 -37 -63 -49 -172 -49 -122 0 -139 7 -115 44
26 40 24 175 -4 210 -15 20 -17 27 -7 30 7 3 20 7 28 10 8 3 61 4 117 3 98 -2
104 -4 133 -32z m-2643 -371 c-9 -9 -28 6 -21 18 4 6 10 6 17 -1 6 -6 8 -13 4
-17z m593 5 c0 -5 -4 -9 -10 -9 -5 0 -10 7 -10 16 0 8 5 12 10 9 6 -3 10 -10
10 -16z m790 -12 c0 -20 4 -23 30 -19 40 6 60 -13 60 -54 0 -41 -37 -71 -67
-56 -10 5 -24 7 -30 5 -10 -4 -13 15 -13 71 0 44 4 76 10 76 6 0 10 -10 10
-23z m150 1 c0 -20 5 -23 37 -23 l38 0 3 -52 c2 -32 -1 -53 -7 -53 -6 0 -11
20 -11 45 0 32 -5 47 -15 51 -25 10 -45 -16 -45 -57 0 -22 -4 -39 -10 -39 -6
0 -10 32 -10 75 0 43 4 75 10 75 6 0 10 -10 10 -22z m-2610 -3 c0 -8 6 -15 13
-16 10 0 10 -2 0 -6 -8 -3 -13 -23 -13 -48 0 -26 5 -45 13 -48 6 -2 9 -7 6
-11 -3 -3 -14 -4 -23 0 -11 4 -16 19 -16 49 0 24 -4 47 -10 50 -6 4 -5 13 3
25 14 24 27 26 27 5z m-352 -33 c3 -11 1 -11 -17 -1 -15 10 -23 11 -32 2 -14
-14 -3 -33 20 -33 40 0 54 -42 20 -60 -26 -14 -69 -5 -69 15 0 12 4 13 19 4
19 -13 51 -6 51 10 0 5 -14 12 -31 16 -32 7 -45 25 -35 51 7 19 67 16 74 -4z
m81 -24 c13 -29 21 -38 25 -28 3 8 10 27 15 43 6 15 15 27 21 27 5 0 10 -1 10
-3 0 -10 -54 -134 -62 -145 -12 -14 -38 -16 -38 -2 0 6 7 10 15 10 20 0 19 30
-4 90 -23 61 -8 67 18 8z m189 24 c3 -11 1 -11 -17 -1 -15 10 -23 11 -32 2
-14 -14 -3 -33 20 -33 24 0 43 -23 35 -43 -12 -33 -84 -33 -84 1 0 12 3 13 12
4 15 -15 45 -16 53 -2 4 6 -10 17 -29 25 -34 14 -47 41 -29 59 12 11 66 2 71
-12z m230 6 c7 -7 12 -20 12 -30 0 -14 -8 -18 -40 -18 -29 0 -40 -4 -40 -15 0
-21 29 -31 51 -17 11 7 20 8 24 2 3 -6 -5 -15 -19 -21 -55 -26 -104 50 -64 99
13 15 60 16 76 0z m212 -8 c13 -24 13 -87 0 -95 -6 -4 -10 11 -10 38 0 52 -24
82 -44 55 -6 -8 -11 -32 -10 -52 1 -20 -2 -39 -7 -42 -5 -3 -9 15 -9 39 0 52
-20 77 -45 57 -9 -7 -15 -29 -15 -51 0 -22 -4 -39 -10 -39 -5 0 -10 24 -10 53
l0 54 75 1 c63 0 77 -3 85 -18z m135 9 c11 -17 -3 -23 -20 -9 -16 13 -45 7
-45 -9 0 -5 16 -15 35 -21 24 -8 35 -18 35 -31 0 -27 -41 -45 -69 -30 -22 12
-29 31 -11 31 6 0 10 -4 10 -10 0 -5 11 -10 25 -10 37 0 31 27 -10 40 -35 12
-49 43 -22 53 22 10 66 7 72 -4z m213 -1 c7 -7 12 -20 12 -30 0 -15 -8 -18
-46 -18 -47 0 -55 -13 -21 -34 12 -8 22 -7 37 2 17 10 20 10 20 -3 0 -20 -43
-29 -69 -16 -49 27 -29 111 27 111 16 0 33 -5 40 -12z m139 1 c15 -13 18 -99
3 -99 -5 0 -10 20 -10 44 0 31 -5 46 -16 50 -26 10 -44 -13 -44 -55 0 -22 -4
-39 -10 -39 -5 0 -10 24 -10 53 l0 54 37 1 c20 1 42 -3 50 -9z m163 -61 c0
-63 -2 -69 -24 -79 -25 -12 -76 -5 -76 10 0 4 17 8 37 7 26 -1 38 4 40 14 3
11 -6 15 -34 15 -32 0 -39 4 -47 27 -7 19 -6 35 2 53 10 22 17 25 57 23 l45
-1 0 -69z m60 17 c0 -30 -3 -55 -7 -55 -5 0 -7 15 -6 32 1 18 2 43 2 56 2 47
11 19 11 -33z m137 44 c15 -13 18 -99 3 -99 -5 0 -10 17 -10 39 0 46 -22 70
-45 51 -9 -7 -15 -29 -15 -51 0 -22 -4 -39 -10 -39 -5 0 -10 24 -10 53 l0 54
37 1 c20 1 42 -3 50 -9z m147 -5 c30 -29 20 -44 -29 -44 -48 0 -48 0 -39 -24
7 -19 45 -21 62 -4 9 9 12 9 12 0 0 -7 -11 -17 -25 -24 -51 -23 -94 37 -65 93
13 23 62 26 84 3z m144 4 c7 -7 12 -20 12 -30 0 -15 -8 -18 -46 -18 -47 0 -55
-13 -21 -34 12 -8 22 -7 37 1 12 8 21 9 25 3 3 -6 -5 -15 -19 -22 -57 -25
-106 35 -72 87 18 27 63 34 84 13z m93 -4 c-15 -11 -21 -26 -21 -55 0 -21 -4
-39 -10 -39 -5 0 -10 24 -10 53 0 54 0 54 31 55 31 1 31 0 10 -14z m79 -39 c0
-30 -4 -55 -10 -55 -5 0 -10 25 -10 55 0 30 5 55 10 55 6 0 10 -25 10 -55z
m138 -2 c2 -32 -1 -53 -7 -53 -6 0 -11 20 -11 45 0 32 -5 47 -15 51 -25 10
-45 -16 -45 -57 0 -22 -4 -39 -10 -39 -5 0 -10 24 -10 54 l0 54 48 -2 47 -1 3
-52z m152 -13 c0 -38 -5 -71 -12 -78 -13 -13 -47 -16 -72 -6 -31 12 -16 22 24
17 35 -5 40 -3 40 14 0 16 -5 19 -28 15 -50 -7 -77 41 -52 89 9 15 20 19 55
17 l45 -1 0 -67z m230 5 c0 -71 -19 -99 -66 -93 -43 5 -41 26 3 24 28 -1 38 3
41 16 3 15 -2 17 -27 12 -40 -8 -61 9 -61 50 0 43 16 56 67 54 l43 -1 0 -62z
m200 35 c7 -28 1 -80 -9 -80 -4 0 -5 17 -3 38 3 26 -1 42 -12 51 -24 20 -46
-3 -46 -50 0 -22 -4 -39 -10 -39 -5 0 -10 20 -10 44 0 25 -5 48 -10 51 -20 12
-40 -17 -40 -56 0 -22 -4 -39 -10 -39 -5 0 -10 24 -10 54 l0 53 77 -1 c73 -1
77 -2 83 -26z"/>
<path d="M793 622 c-13 -8 -33 -55 -33 -78 0 -22 215 -21 224 2 10 25 7 59 -6
72 -13 13 -165 17 -185 4z"/>
<path d="M2140 600 c-11 -11 -20 -29 -20 -40 0 -20 5 -21 103 -18 98 3 102 4
105 26 6 41 -14 52 -94 52 -61 0 -78 -4 -94 -20z"/>
<path d="M3075 214 c-30 -31 0 -86 39 -71 28 11 15 87 -15 87 -4 0 -15 -7 -24
-16z"/>
<path d="M693 223 c-26 -10 -13 -33 17 -33 32 0 42 23 14 34 -9 3 -16 6 -17 5
-1 0 -8 -3 -14 -6z"/>
<path d="M1247 219 c-24 -14 -12 -29 24 -29 31 0 36 9 17 28 -14 14 -18 14
-41 1z"/>
<path d="M1530 216 c-15 -19 -9 -56 12 -69 34 -22 66 41 36 71 -16 16 -33 15
-48 -2z"/>
<path d="M1892 218 c-19 -19 -14 -28 16 -28 35 0 45 9 31 27 -14 16 -31 17
-47 1z"/>
<path d="M2031 217 c-14 -18 -4 -27 31 -27 30 0 35 9 16 28 -16 16 -33 15 -47
-1z"/>
<path d="M2482 218 c-32 -32 9 -96 44 -67 26 22 11 79 -21 79 -6 0 -16 -5 -23
-12z"/>
<path d="M2712 218 c-22 -22 -8 -78 19 -78 13 0 39 31 39 45 0 14 -26 45 -39
45 -4 0 -12 -5 -19 -12z"/>
</g>
</svg>
