<svg width="260" height="39" viewBox="0 0 260 39" fill="none" xmlns="http://www.w3.org/2000/svg">
<g clip-path="url(#clip0_8000_202036)">
<path d="M6.5 2.2H15.3V0H6.3C1 0 0 3 0 7.7V18.8H2V11.1H13.6V8.7H2V7.7C2 3.3 2.9 2.2 6.5 2.2Z" fill="#00458A"/>
<path d="M24.5002 0C19.3002 0 18.2002 3 18.2002 7.7V18.8H20.2002V7.8C20.2002 3.4 21.0002 2.2 24.7002 2.2H32.9002V0H24.5002Z" fill="#00458A"/>
<path d="M37.2002 11.6H48.0002C52.7002 11.6 53.3002 8.7 53.3002 5.8C53.3002 1.7 51.8002 0 47.9002 0H42.4002C36.4002 0 35.2002 3.8 35.2002 9.4C35.2002 15 36.4002 18.8 42.4002 18.8H52.8002V16.4H42.5002C38.9002 16.4 37.5002 15.2 37.2002 11.6ZM47.6002 9.3H37.1002C37.1002 4.6 37.9002 2.3 42.5002 2.3H47.7002C50.8002 2.3 51.3002 3.4 51.3002 5.9C51.3002 8.5 50.6002 9.3 47.6002 9.3Z" fill="#00458A"/>
<path d="M68.3002 7.8H61.3002C58.6002 7.8 58.3002 7 58.3002 5C58.3002 3.2 58.6002 2.4 61.3002 2.4H73.0002V0H61.0002C57.8002 0 56.2002 1.6 56.2002 5C56.2002 8.7 57.5002 10.1 61.0002 10.1H67.9002C70.9002 10.1 71.6002 10.7 71.6002 13.3C71.6002 15.9 71.0002 16.5 68.0002 16.5H56.7002V18.9H68.2002C72.1002 18.9 73.6002 17.3 73.6002 13.4C73.6002 9.9 72.7002 7.8 68.3002 7.8Z" fill="#00458A"/>
<path d="M92.2004 0V8.1H79.4004V0H77.4004V18.8H79.4004V10.5H92.2004V18.9H94.2004V0H92.2004Z" fill="#00458A"/>
<path d="M105.6 3.3H116.2V0H105.5C98.6002 0 97.7002 4.5 97.7002 9.4C97.7002 14.3 98.6002 18.8 105.5 18.8H116.2V15.4H105.6C101.8 15.4 100.7 14.1 100.7 9.3C100.7 4.5 101.8 3.3 105.6 3.3Z" fill="#00458A"/>
<path d="M121.4 12.1H131.5C136.7 12.1 137.4 8.9 137.4 6.1C137.4 2 135.6 0 131.4 0H125.9C119 0 118.1 4.7 118.1 9.4C118.1 14.1 119 18.8 125.9 18.8H136.8V15.5H126C123 15.5 121.8 14.7 121.4 12.1ZM121.2 8.6C121.4 4.5 122.5 3.3 126.1 3.3H131.2C133.8 3.3 134.3 3.9 134.3 6C134.3 8.1 133.9 8.6 131.2 8.6H121.2Z" fill="#00458A"/>
<path d="M146.8 15.5C143.6 15.5 142.9 14.7 142.9 10.8V0H139.7V11C139.7 15.1 140.5 18.8 146.6 18.8H156.3V15.5H146.8Z" fill="#00458A"/>
<path d="M164.8 15.5C161.6 15.5 160.9 14.7 160.9 10.8V0H157.7V11C157.7 15.1 158.5 18.8 164.6 18.8H174.2V15.5H164.8Z" fill="#00458A"/>
<path d="M188.2 7.3H181.2C178.8 7.3 178.8 6.8 178.8 5.2C178.8 3.9 178.8 3.3 181.2 3.3H193.5V0H181C177.5 0 175.6 1.8 175.6 5.3C175.6 9.1 177.2 10.6 180.9 10.6H187.8C190.7 10.6 190.9 11 190.9 13C190.9 15 190.7 15.4 187.8 15.4H176V18.8H188C192.2 18.8 194 17.1 194 13C194 8.9 192.3 7.3 188.2 7.3Z" fill="#00458A"/>
<path d="M5.83682 29.8565L4.77983 30.1556C4.71336 29.9794 4.6153 29.8083 4.48567 29.6421C4.35936 29.4726 4.18652 29.333 3.96715 29.2233C3.74777 29.1136 3.46691 29.0587 3.12455 29.0587C2.65588 29.0587 2.26533 29.1668 1.95289 29.3828C1.64377 29.5955 1.48921 29.8664 1.48921 30.1955C1.48921 30.488 1.59557 30.719 1.8083 30.8885C2.02103 31.058 2.35341 31.1993 2.80546 31.3123L3.94222 31.5915C4.62694 31.7577 5.13715 32.012 5.47286 32.3543C5.80857 32.6934 5.97642 33.1305 5.97642 33.6656C5.97642 34.1044 5.85012 34.4966 5.5975 34.8423C5.34821 35.1879 4.99921 35.4605 4.55049 35.6599C4.10176 35.8594 3.57992 35.9591 2.98495 35.9591C2.20384 35.9591 1.55735 35.7896 1.04547 35.4505C0.533597 35.1115 0.209521 34.6162 0.0732422 33.9648L1.19006 33.6856C1.29642 34.0977 1.49752 34.4068 1.79334 34.6129C2.09249 34.819 2.48304 34.922 2.965 34.922C3.51344 34.922 3.94887 34.8057 4.27128 34.573C4.59702 34.337 4.75989 34.0545 4.75989 33.7254C4.75989 33.4595 4.66682 33.2368 4.48069 33.0573C4.29455 32.8745 4.0087 32.7383 3.62313 32.6485L2.34677 32.3494C1.64543 32.1832 1.13023 31.9256 0.801168 31.5766C0.47543 31.2242 0.31256 30.7838 0.31256 30.2553C0.31256 29.8232 0.433881 29.441 0.676523 29.1086C0.922489 28.7762 1.25654 28.5153 1.67867 28.3258C2.10412 28.1364 2.58608 28.0416 3.12455 28.0416C3.88239 28.0416 4.47736 28.2078 4.90946 28.5402C5.34489 28.8726 5.65401 29.3113 5.83682 29.8565Z" fill="#0566AB"/>
<path d="M9.23555 38.6713C9.03612 38.6713 8.85829 38.6547 8.70207 38.6215C8.54585 38.5916 8.43782 38.5617 8.37799 38.5317L8.67714 37.4947C8.96299 37.5678 9.21561 37.5944 9.43498 37.5745C9.65436 37.5545 9.8488 37.4565 10.0183 37.2803C10.1912 37.1075 10.349 36.8266 10.492 36.4377L10.7113 35.8394L7.87941 28.1413H9.15578L11.2698 34.244H11.3495L13.4635 28.1413H14.7399L11.4891 36.9163C11.3429 37.3119 11.1617 37.6393 10.9457 37.8986C10.7296 38.1611 10.4787 38.3556 10.1928 38.4819C9.91029 38.6082 9.5912 38.6713 9.23555 38.6713Z" fill="#0566AB"/>
<path d="M22.4476 29.8565L21.3906 30.1556C21.3241 29.9794 21.226 29.8083 21.0964 29.6421C20.9701 29.4726 20.7973 29.333 20.5779 29.2233C20.3585 29.1136 20.0777 29.0587 19.7353 29.0587C19.2666 29.0587 18.8761 29.1668 18.5636 29.3828C18.2545 29.5955 18.1 29.8664 18.1 30.1955C18.1 30.488 18.2063 30.719 18.419 30.8885C18.6318 31.058 18.9642 31.1993 19.4162 31.3123L20.553 31.5915C21.2377 31.7577 21.7479 32.012 22.0836 32.3543C22.4193 32.6934 22.5872 33.1305 22.5872 33.6656C22.5872 34.1044 22.4609 34.4966 22.2083 34.8423C21.959 35.1879 21.61 35.4605 21.1612 35.6599C20.7125 35.8594 20.1907 35.9591 19.5957 35.9591C18.8146 35.9591 18.1681 35.7896 17.6562 35.4505C17.1443 35.1115 16.8203 34.6162 16.684 33.9648L17.8008 33.6856C17.9072 34.0977 18.1083 34.4068 18.4041 34.6129C18.7032 34.819 19.0938 34.922 19.5758 34.922C20.1242 34.922 20.5596 34.8057 20.882 34.573C21.2078 34.337 21.3706 34.0545 21.3706 33.7254C21.3706 33.4595 21.2776 33.2368 21.0914 33.0573C20.9053 32.8745 20.6194 32.7383 20.2339 32.6485L18.9575 32.3494C18.2562 32.1832 17.741 31.9256 17.4119 31.5766C17.0862 31.2242 16.9233 30.7838 16.9233 30.2553C16.9233 29.8232 17.0446 29.441 17.2873 29.1086C17.5332 28.7762 17.8673 28.5153 18.2894 28.3258C18.7149 28.1364 19.1968 28.0416 19.7353 28.0416C20.4931 28.0416 21.0881 28.2078 21.5202 28.5402C21.9556 28.8726 22.2648 29.3113 22.4476 29.8565Z" fill="#0566AB"/>
<path d="M28.419 28.1413V29.1385H24.4503V28.1413H28.419ZM25.607 26.3066H26.7836V33.6058C26.7836 33.9382 26.8318 34.1875 26.9282 34.3537C27.0279 34.5165 27.1542 34.6262 27.3071 34.6827C27.4634 34.7359 27.6279 34.7625 27.8007 34.7625C27.9304 34.7625 28.0367 34.7558 28.1198 34.7425C28.2029 34.7259 28.2694 34.7126 28.3192 34.7027L28.5586 35.7596C28.4788 35.7896 28.3674 35.8195 28.2245 35.8494C28.0816 35.8826 27.9004 35.8992 27.6811 35.8992C27.3487 35.8992 27.0229 35.8278 26.7038 35.6849C26.3881 35.5419 26.1255 35.3242 25.9161 35.0317C25.71 34.7392 25.607 34.3703 25.607 33.9249V26.3066Z" fill="#0566AB"/>
<path d="M34.0476 35.9591C33.3097 35.9591 32.6732 35.7962 32.138 35.4705C31.6062 35.1414 31.1957 34.6827 30.9065 34.0944C30.6207 33.5027 30.4778 32.8147 30.4778 32.0303C30.4778 31.2458 30.6207 30.5545 30.9065 29.9562C31.1957 29.3546 31.5979 28.8859 32.1131 28.5502C32.6316 28.2112 33.2366 28.0416 33.9279 28.0416C34.3268 28.0416 34.7207 28.1081 35.1096 28.2411C35.4985 28.374 35.8524 28.5901 36.1715 28.8892C36.4906 29.185 36.7449 29.5773 36.9344 30.0659C37.1238 30.5545 37.2186 31.1561 37.2186 31.8707V32.3693H31.3154V31.3522H36.022C36.022 30.9201 35.9355 30.5345 35.7627 30.1955C35.5932 29.8565 35.3505 29.5889 35.0348 29.3928C34.7223 29.1967 34.3534 29.0986 33.9279 29.0986C33.4593 29.0986 33.0538 29.215 32.7114 29.4476C32.3724 29.677 32.1114 29.9761 31.9286 30.3451C31.7458 30.714 31.6544 31.1096 31.6544 31.5317V32.2098C31.6544 32.7881 31.7541 33.2784 31.9536 33.6806C32.1563 34.0794 32.4372 34.3836 32.7962 34.593C33.1551 34.799 33.5723 34.9021 34.0476 34.9021C34.3567 34.9021 34.6359 34.8589 34.8852 34.7725C35.1378 34.6827 35.3555 34.5498 35.5383 34.3736C35.7212 34.1941 35.8624 33.9714 35.9621 33.7055L37.0989 34.0246C36.9792 34.4102 36.7781 34.7492 36.4956 35.0417C36.2131 35.3309 35.8641 35.5569 35.4486 35.7198C35.0331 35.8793 34.5661 35.9591 34.0476 35.9591Z" fill="#0566AB"/>
<path d="M39.7385 35.7995V28.1413H40.8753V29.3379H40.975C41.1346 28.9291 41.3922 28.6117 41.7478 28.3857C42.1035 28.1563 42.5306 28.0416 43.0292 28.0416C43.5344 28.0416 43.9549 28.1563 44.2906 28.3857C44.6296 28.6117 44.8938 28.9291 45.0833 29.3379H45.1631C45.3592 28.9424 45.6534 28.6283 46.0456 28.3956C46.4378 28.1596 46.9081 28.0416 47.4566 28.0416C48.1413 28.0416 48.7013 28.256 49.1368 28.6848C49.5722 29.1103 49.7899 29.7734 49.7899 30.6741V35.7995H48.6133V30.6741C48.6133 30.1091 48.4587 29.7052 48.1496 29.4626C47.8405 29.2199 47.4765 29.0986 47.0577 29.0986C46.5192 29.0986 46.1021 29.2615 45.8063 29.5872C45.5104 29.9096 45.3625 30.3185 45.3625 30.8137V35.7995H44.1659V30.5545C44.1659 30.119 44.0247 29.7684 43.7421 29.5025C43.4596 29.2332 43.0956 29.0986 42.6502 29.0986C42.3444 29.0986 42.0586 29.1801 41.7927 29.3429C41.5301 29.5058 41.3174 29.7318 41.1545 30.021C40.995 30.3068 40.9152 30.6376 40.9152 31.0132V35.7995H39.7385Z" fill="#0566AB"/>
<path d="M58.0959 29.8565L57.0389 30.1556C56.9724 29.9794 56.8744 29.8083 56.7447 29.6421C56.6184 29.4726 56.4456 29.333 56.2262 29.2233C56.0068 29.1136 55.726 29.0587 55.3836 29.0587C54.915 29.0587 54.5244 29.1668 54.212 29.3828C53.9028 29.5955 53.7483 29.8664 53.7483 30.1955C53.7483 30.488 53.8546 30.719 54.0674 30.8885C54.2801 31.058 54.6125 31.1993 55.0645 31.3123L56.2013 31.5915C56.886 31.7577 57.3962 32.012 57.7319 32.3543C58.0676 32.6934 58.2355 33.1305 58.2355 33.6656C58.2355 34.1044 58.1092 34.4966 57.8566 34.8423C57.6073 35.1879 57.2583 35.4605 56.8096 35.6599C56.3608 35.8594 55.839 35.9591 55.244 35.9591C54.4629 35.9591 53.8164 35.7896 53.3045 35.4505C52.7927 35.1115 52.4686 34.6162 52.3323 33.9648L53.4491 33.6856C53.5555 34.0977 53.7566 34.4068 54.0524 34.6129C54.3516 34.819 54.7421 34.922 55.2241 34.922C55.7725 34.922 56.2079 34.8057 56.5304 34.573C56.8561 34.337 57.019 34.0545 57.019 33.7254C57.019 33.4595 56.9259 33.2368 56.7398 33.0573C56.5536 32.8745 56.2678 32.7383 55.8822 32.6485L54.6058 32.3494C53.9045 32.1832 53.3893 31.9256 53.0602 31.5766C52.7345 31.2242 52.5716 30.7838 52.5716 30.2553C52.5716 29.8232 52.693 29.441 52.9356 29.1086C53.1816 28.7762 53.5156 28.5153 53.9377 28.3258C54.3632 28.1364 54.8452 28.0416 55.3836 28.0416C56.1415 28.0416 56.7364 28.2078 57.1685 28.5402C57.604 28.8726 57.9131 29.3113 58.0959 29.8565Z" fill="#0566AB"/>
<path d="M68.6265 35.9591C67.8886 35.9591 67.252 35.7962 66.7169 35.4705C66.1851 35.1414 65.7746 34.6827 65.4854 34.0944C65.1996 33.5027 65.0566 32.8147 65.0566 32.0303C65.0566 31.2458 65.1996 30.5545 65.4854 29.9562C65.7746 29.3546 66.1768 28.8859 66.692 28.5502C67.2105 28.2112 67.8154 28.0416 68.5068 28.0416C68.9057 28.0416 69.2995 28.1081 69.6884 28.2411C70.0773 28.374 70.4313 28.5901 70.7504 28.8892C71.0695 29.185 71.3238 29.5773 71.5132 30.0659C71.7027 30.5545 71.7974 31.1561 71.7974 31.8707V32.3693H65.8942V31.3522H70.6008C70.6008 30.9201 70.5144 30.5345 70.3416 30.1955C70.1721 29.8565 69.9294 29.5889 69.6136 29.3928C69.3012 29.1967 68.9323 29.0986 68.5068 29.0986C68.0381 29.0986 67.6326 29.215 67.2903 29.4476C66.9512 29.677 66.6903 29.9761 66.5075 30.3451C66.3247 30.714 66.2333 31.1096 66.2333 31.5317V32.2098C66.2333 32.7881 66.333 33.2784 66.5324 33.6806C66.7352 34.0794 67.016 34.3836 67.375 34.593C67.734 34.799 68.1511 34.9021 68.6265 34.9021C68.9356 34.9021 69.2148 34.8589 69.4641 34.7725C69.7167 34.6827 69.9344 34.5498 70.1172 34.3736C70.3 34.1941 70.4413 33.9714 70.541 33.7055L71.6778 34.0246C71.5581 34.4102 71.357 34.7492 71.0745 35.0417C70.792 35.3309 70.4429 35.5569 70.0275 35.7198C69.612 35.8793 69.145 35.9591 68.6265 35.9591Z" fill="#0566AB"/>
<path d="M75.4941 31.1927V35.7995H74.3174V28.1413H75.4542V29.3379H75.5539C75.7334 28.949 76.0059 28.6366 76.3716 28.4006C76.7372 28.1613 77.2092 28.0416 77.7875 28.0416C78.306 28.0416 78.7598 28.148 79.1486 28.3607C79.5375 28.5701 79.84 28.8892 80.0561 29.318C80.2721 29.7435 80.3801 30.2819 80.3801 30.9334V35.7995H79.2035V31.0132C79.2035 30.4115 79.0473 29.9429 78.7348 29.6072C78.4224 29.2681 77.9936 29.0986 77.4485 29.0986C77.0729 29.0986 76.7372 29.1801 76.4414 29.3429C76.1489 29.5058 75.9179 29.7435 75.7483 30.0559C75.5788 30.3683 75.4941 30.7473 75.4941 31.1927Z" fill="#0566AB"/>
<path d="M86.3515 38.8309C85.7831 38.8309 85.2945 38.7578 84.8857 38.6115C84.4769 38.4686 84.1362 38.2791 83.8636 38.0431C83.5944 37.8105 83.38 37.5612 83.2205 37.2953L84.1578 36.6371C84.2641 36.7767 84.3988 36.9363 84.5616 37.1158C84.7245 37.2986 84.9472 37.4565 85.2297 37.5894C85.5156 37.7257 85.8895 37.7938 86.3515 37.7938C86.9698 37.7938 87.48 37.6443 87.8822 37.3451C88.2844 37.046 88.4855 36.5773 88.4855 35.9391V34.3836H88.3857C88.2993 34.5232 88.1763 34.696 88.0168 34.9021C87.8606 35.1048 87.6345 35.286 87.3387 35.4455C87.0462 35.6018 86.6507 35.6799 86.1521 35.6799C85.5339 35.6799 84.9788 35.5336 84.4868 35.2411C83.9982 34.9486 83.611 34.5232 83.3251 33.9648C83.0426 33.4063 82.9014 32.7283 82.9014 31.9306C82.9014 31.1461 83.0393 30.4631 83.3152 29.8814C83.5911 29.2964 83.975 28.8443 84.4669 28.5253C84.9588 28.2028 85.5272 28.0416 86.172 28.0416C86.6706 28.0416 87.0662 28.1247 87.3587 28.2909C87.6545 28.4538 87.8805 28.6399 88.0367 28.8493C88.1963 29.0554 88.3193 29.2249 88.4057 29.3579H88.5253V28.1413H89.6621V36.0189C89.6621 36.677 89.5125 37.2122 89.2134 37.6243C88.9175 38.0398 88.5187 38.3439 88.0168 38.5367C87.5182 38.7328 86.9631 38.8309 86.3515 38.8309ZM86.3116 34.6229C86.7836 34.6229 87.1825 34.5149 87.5082 34.2988C87.834 34.0828 88.0816 33.772 88.2511 33.3665C88.4206 32.961 88.5054 32.4757 88.5054 31.9106C88.5054 31.3588 88.4223 30.8719 88.2561 30.4498C88.0899 30.0276 87.8439 29.6969 87.5182 29.4576C87.1925 29.2183 86.7903 29.0986 86.3116 29.0986C85.8131 29.0986 85.3976 29.2249 85.0652 29.4775C84.7361 29.7302 84.4885 30.0692 84.3223 30.4946C84.1594 30.9201 84.078 31.3921 84.078 31.9106C84.078 32.4424 84.1611 32.9128 84.3273 33.3216C84.4968 33.7271 84.7461 34.0462 85.0752 34.2789C85.4076 34.5082 85.8197 34.6229 86.3116 34.6229Z" fill="#0566AB"/>
<path d="M92.546 35.7995V28.1413H93.7227V35.7995H92.546ZM93.1443 26.865C92.915 26.865 92.7172 26.7869 92.551 26.6307C92.3882 26.4744 92.3067 26.2866 92.3067 26.0673C92.3067 25.8479 92.3882 25.6601 92.551 25.5039C92.7172 25.3476 92.915 25.2695 93.1443 25.2695C93.3737 25.2695 93.5698 25.3476 93.7327 25.5039C93.8989 25.6601 93.9819 25.8479 93.9819 26.0673C93.9819 26.2866 93.8989 26.4744 93.7327 26.6307C93.5698 26.7869 93.3737 26.865 93.1443 26.865Z" fill="#0566AB"/>
<path d="M97.7845 31.1927V35.7995H96.6079V28.1413H97.7446V29.3379H97.8444C98.0238 28.949 98.2964 28.6366 98.662 28.4006C99.0277 28.1613 99.4996 28.0416 100.078 28.0416C100.597 28.0416 101.05 28.148 101.439 28.3607C101.828 28.5701 102.13 28.8892 102.347 29.318C102.563 29.7435 102.671 30.2819 102.671 30.9334V35.7995H101.494V31.0132C101.494 30.4115 101.338 29.9429 101.025 29.6072C100.713 29.2681 100.284 29.0986 99.739 29.0986C99.3634 29.0986 99.0277 29.1801 98.7318 29.3429C98.4393 29.5058 98.2083 29.7435 98.0388 30.0559C97.8693 30.3683 97.7845 30.7473 97.7845 31.1927Z" fill="#0566AB"/>
<path d="M108.762 35.9591C108.024 35.9591 107.387 35.7962 106.852 35.4705C106.32 35.1414 105.91 34.6827 105.621 34.0944C105.335 33.5027 105.192 32.8147 105.192 32.0303C105.192 31.2458 105.335 30.5545 105.621 29.9562C105.91 29.3546 106.312 28.8859 106.827 28.5502C107.346 28.2112 107.951 28.0416 108.642 28.0416C109.041 28.0416 109.435 28.1081 109.824 28.2411C110.213 28.374 110.567 28.5901 110.886 28.8892C111.205 29.185 111.459 29.5773 111.648 30.0659C111.838 30.5545 111.933 31.1561 111.933 31.8707V32.3693H106.029V31.3522H110.736C110.736 30.9201 110.65 30.5345 110.477 30.1955C110.307 29.8565 110.065 29.5889 109.749 29.3928C109.436 29.1967 109.067 29.0986 108.642 29.0986C108.173 29.0986 107.768 29.215 107.425 29.4476C107.086 29.677 106.826 29.9761 106.643 30.3451C106.46 30.714 106.368 31.1096 106.368 31.5317V32.2098C106.368 32.7881 106.468 33.2784 106.668 33.6806C106.87 34.0794 107.151 34.3836 107.51 34.593C107.869 34.799 108.286 34.9021 108.762 34.9021C109.071 34.9021 109.35 34.8589 109.599 34.7725C109.852 34.6827 110.07 34.5498 110.252 34.3736C110.435 34.1941 110.576 33.9714 110.676 33.7055L111.813 34.0246C111.693 34.4102 111.492 34.7492 111.21 35.0417C110.927 35.3309 110.578 35.5569 110.163 35.7198C109.747 35.8793 109.28 35.9591 108.762 35.9591Z" fill="#0566AB"/>
<path d="M117.663 35.9591C116.926 35.9591 116.289 35.7962 115.754 35.4705C115.222 35.1414 114.812 34.6827 114.522 34.0944C114.237 33.5027 114.094 32.8147 114.094 32.0303C114.094 31.2458 114.237 30.5545 114.522 29.9562C114.812 29.3546 115.214 28.8859 115.729 28.5502C116.247 28.2112 116.852 28.0416 117.544 28.0416C117.943 28.0416 118.337 28.1081 118.725 28.2411C119.114 28.374 119.468 28.5901 119.787 28.8892C120.107 29.185 120.361 29.5773 120.55 30.0659C120.74 30.5545 120.834 31.1561 120.834 31.8707V32.3693H114.931V31.3522H119.638C119.638 30.9201 119.551 30.5345 119.379 30.1955C119.209 29.8565 118.966 29.5889 118.651 29.3928C118.338 29.1967 117.969 29.0986 117.544 29.0986C117.075 29.0986 116.67 29.215 116.327 29.4476C115.988 29.677 115.727 29.9761 115.545 30.3451C115.362 30.714 115.27 31.1096 115.27 31.5317V32.2098C115.27 32.7881 115.37 33.2784 115.569 33.6806C115.772 34.0794 116.053 34.3836 116.412 34.593C116.771 34.799 117.188 34.9021 117.663 34.9021C117.973 34.9021 118.252 34.8589 118.501 34.7725C118.754 34.6827 118.971 34.5498 119.154 34.3736C119.337 34.1941 119.478 33.9714 119.578 33.7055L120.715 34.0246C120.595 34.4102 120.394 34.7492 120.111 35.0417C119.829 35.3309 119.48 35.5569 119.064 35.7198C118.649 35.8793 118.182 35.9591 117.663 35.9591Z" fill="#0566AB"/>
<path d="M123.354 35.7995V28.1413H124.491V29.2981H124.571C124.711 28.9191 124.963 28.6117 125.329 28.3757C125.694 28.1397 126.107 28.0217 126.565 28.0217C126.652 28.0217 126.76 28.0234 126.889 28.0267C127.019 28.03 127.117 28.035 127.184 28.0416V29.2382C127.144 29.2283 127.052 29.2133 126.909 29.1934C126.77 29.1701 126.622 29.1585 126.466 29.1585C126.093 29.1585 125.761 29.2366 125.468 29.3928C125.179 29.5457 124.95 29.7584 124.78 30.031C124.614 30.3002 124.531 30.6077 124.531 30.9533V35.7995H123.354Z" fill="#0566AB"/>
<path d="M129.308 35.7995V28.1413H130.485V35.7995H129.308ZM129.907 26.865C129.677 26.865 129.48 26.7869 129.313 26.6307C129.15 26.4744 129.069 26.2866 129.069 26.0673C129.069 25.8479 129.15 25.6601 129.313 25.5039C129.48 25.3476 129.677 25.2695 129.907 25.2695C130.136 25.2695 130.332 25.3476 130.495 25.5039C130.661 25.6601 130.744 25.8479 130.744 26.0673C130.744 26.2866 130.661 26.4744 130.495 26.6307C130.332 26.7869 130.136 26.865 129.907 26.865Z" fill="#0566AB"/>
<path d="M134.547 31.1927V35.7995H133.37V28.1413H134.507V29.3379H134.607C134.786 28.949 135.059 28.6366 135.424 28.4006C135.79 28.1613 136.262 28.0416 136.84 28.0416C137.359 28.0416 137.813 28.148 138.201 28.3607C138.59 28.5701 138.893 28.8892 139.109 29.318C139.325 29.7435 139.433 30.2819 139.433 30.9334V35.7995H138.256V31.0132C138.256 30.4115 138.1 29.9429 137.788 29.6072C137.475 29.2681 137.046 29.0986 136.501 29.0986C136.126 29.0986 135.79 29.1801 135.494 29.3429C135.202 29.5058 134.971 29.7435 134.801 30.0559C134.632 30.3683 134.547 30.7473 134.547 31.1927Z" fill="#0566AB"/>
<path d="M145.404 38.8309C144.836 38.8309 144.347 38.7578 143.938 38.6115C143.53 38.4686 143.189 38.2791 142.916 38.0431C142.647 37.8105 142.433 37.5612 142.273 37.2953L143.211 36.6371C143.317 36.7767 143.452 36.9363 143.614 37.1158C143.777 37.2986 144 37.4565 144.283 37.5894C144.568 37.7257 144.942 37.7938 145.404 37.7938C146.023 37.7938 146.533 37.6443 146.935 37.3451C147.337 37.046 147.538 36.5773 147.538 35.9391V34.3836H147.439C147.352 34.5232 147.229 34.696 147.07 34.9021C146.913 35.1048 146.687 35.286 146.392 35.4455C146.099 35.6018 145.703 35.6799 145.205 35.6799C144.587 35.6799 144.032 35.5336 143.54 35.2411C143.051 34.9486 142.664 34.5232 142.378 33.9648C142.095 33.4063 141.954 32.7283 141.954 31.9306C141.954 31.1461 142.092 30.4631 142.368 29.8814C142.644 29.2964 143.028 28.8443 143.52 28.5253C144.012 28.2028 144.58 28.0416 145.225 28.0416C145.723 28.0416 146.119 28.1247 146.411 28.2909C146.707 28.4538 146.933 28.6399 147.09 28.8493C147.249 29.0554 147.372 29.2249 147.458 29.3579H147.578V28.1413H148.715V36.0189C148.715 36.677 148.565 37.2122 148.266 37.6243C147.97 38.0398 147.571 38.3439 147.07 38.5367C146.571 38.7328 146.016 38.8309 145.404 38.8309ZM145.364 34.6229C145.836 34.6229 146.235 34.5149 146.561 34.2988C146.887 34.0828 147.134 33.772 147.304 33.3665C147.473 32.961 147.558 32.4757 147.558 31.9106C147.558 31.3588 147.475 30.8719 147.309 30.4498C147.143 30.0276 146.897 29.6969 146.571 29.4576C146.245 29.2183 145.843 29.0986 145.364 29.0986C144.866 29.0986 144.45 29.2249 144.118 29.4775C143.789 29.7302 143.541 30.0692 143.375 30.4946C143.212 30.9201 143.131 31.3921 143.131 31.9106C143.131 32.4424 143.214 32.9128 143.38 33.3216C143.55 33.7271 143.799 34.0462 144.128 34.2789C144.46 34.5082 144.872 34.6229 145.364 34.6229Z" fill="#0566AB"/>
<path d="M159.369 38.8309C158.8 38.8309 158.312 38.7578 157.903 38.6115C157.494 38.4686 157.153 38.2791 156.881 38.0431C156.612 37.8105 156.397 37.5612 156.238 37.2953L157.175 36.6371C157.281 36.7767 157.416 36.9363 157.579 37.1158C157.742 37.2986 157.965 37.4565 158.247 37.5894C158.533 37.7257 158.907 37.7938 159.369 37.7938C159.987 37.7938 160.497 37.6443 160.899 37.3451C161.302 37.046 161.503 36.5773 161.503 35.9391V34.3836H161.403C161.317 34.5232 161.194 34.696 161.034 34.9021C160.878 35.1048 160.652 35.286 160.356 35.4455C160.064 35.6018 159.668 35.6799 159.169 35.6799C158.551 35.6799 157.996 35.5336 157.504 35.2411C157.016 34.9486 156.628 34.5232 156.342 33.9648C156.06 33.4063 155.919 32.7283 155.919 31.9306C155.919 31.1461 156.057 30.4631 156.333 29.8814C156.608 29.2964 156.992 28.8443 157.484 28.5253C157.976 28.2028 158.545 28.0416 159.189 28.0416C159.688 28.0416 160.083 28.1247 160.376 28.2909C160.672 28.4538 160.898 28.6399 161.054 28.8493C161.214 29.0554 161.337 29.2249 161.423 29.3579H161.543V28.1413H162.679V36.0189C162.679 36.677 162.53 37.2122 162.231 37.6243C161.935 38.0398 161.536 38.3439 161.034 38.5367C160.536 38.7328 159.98 38.8309 159.369 38.8309ZM159.329 34.6229C159.801 34.6229 160.2 34.5149 160.526 34.2988C160.851 34.0828 161.099 33.772 161.268 33.3665C161.438 32.961 161.523 32.4757 161.523 31.9106C161.523 31.3588 161.44 30.8719 161.273 30.4498C161.107 30.0276 160.861 29.6969 160.536 29.4576C160.21 29.2183 159.808 29.0986 159.329 29.0986C158.83 29.0986 158.415 29.2249 158.083 29.4775C157.753 29.7302 157.506 30.0692 157.34 30.4946C157.177 30.9201 157.095 31.3921 157.095 31.9106C157.095 32.4424 157.178 32.9128 157.345 33.3216C157.514 33.7271 157.763 34.0462 158.092 34.2789C158.425 34.5082 158.837 34.6229 159.329 34.6229Z" fill="#0566AB"/>
<path d="M165.563 35.7995V28.1413H166.7V29.3379H166.8C166.959 28.9291 167.217 28.6117 167.573 28.3857C167.928 28.1563 168.355 28.0416 168.854 28.0416C169.359 28.0416 169.78 28.1563 170.115 28.3857C170.454 28.6117 170.719 28.9291 170.908 29.3379H170.988C171.184 28.9424 171.478 28.6283 171.87 28.3956C172.263 28.1596 172.733 28.0416 173.281 28.0416C173.966 28.0416 174.526 28.256 174.962 28.6848C175.397 29.1103 175.615 29.7734 175.615 30.6741V35.7995H174.438V30.6741C174.438 30.1091 174.284 29.7052 173.974 29.4626C173.665 29.2199 173.301 29.0986 172.883 29.0986C172.344 29.0986 171.927 29.2615 171.631 29.5872C171.335 29.9096 171.187 30.3185 171.187 30.8137V35.7995H169.991V30.5545C169.991 30.119 169.849 29.7684 169.567 29.5025C169.284 29.2332 168.92 29.0986 168.475 29.0986C168.169 29.0986 167.883 29.1801 167.618 29.3429C167.355 29.5058 167.142 29.7318 166.979 30.021C166.82 30.3068 166.74 30.6376 166.74 31.0132V35.7995H165.563Z" fill="#0566AB"/>
<path d="M178.656 35.7995V25.5886H179.832V29.3579H179.932C180.019 29.2249 180.138 29.0554 180.291 28.8493C180.447 28.6399 180.67 28.4538 180.959 28.2909C181.252 28.1247 181.647 28.0416 182.146 28.0416C182.791 28.0416 183.359 28.2028 183.851 28.5253C184.343 28.8477 184.727 29.3047 185.003 29.8963C185.279 30.488 185.416 31.186 185.416 31.9904C185.416 32.8014 185.279 33.5044 185.003 34.0994C184.727 34.691 184.345 35.1497 183.856 35.4755C183.367 35.7979 182.804 35.9591 182.166 35.9591C181.674 35.9591 181.28 35.8776 180.984 35.7148C180.688 35.5486 180.461 35.3608 180.301 35.1514C180.141 34.9387 180.019 34.7625 179.932 34.6229H179.792V35.7995H178.656ZM179.812 31.9704C179.812 32.5488 179.897 33.059 180.067 33.5011C180.236 33.9398 180.484 34.2838 180.81 34.5331C181.135 34.7791 181.534 34.9021 182.006 34.9021C182.498 34.9021 182.909 34.7725 183.238 34.5132C183.57 34.2506 183.819 33.8983 183.986 33.4562C184.155 33.0108 184.24 32.5156 184.24 31.9704C184.24 31.432 184.157 30.9467 183.991 30.5146C183.828 30.0792 183.58 29.7351 183.248 29.4825C182.919 29.2266 182.505 29.0986 182.006 29.0986C181.528 29.0986 181.125 29.2199 180.8 29.4626C180.474 29.7019 180.228 30.0376 180.062 30.4697C179.896 30.8985 179.812 31.3987 179.812 31.9704Z" fill="#0566AB"/>
<path d="M189.123 31.1927V35.7995H187.946V25.5886H189.123V29.3379H189.223C189.402 28.9424 189.672 28.6283 190.03 28.3956C190.393 28.1596 190.875 28.0416 191.476 28.0416C191.998 28.0416 192.455 28.1463 192.847 28.3557C193.24 28.5618 193.544 28.8792 193.76 29.308C193.979 29.7335 194.089 30.2753 194.089 30.9334V35.7995H192.912V31.0132C192.912 30.4049 192.754 29.9346 192.439 29.6022C192.126 29.2665 191.692 29.0986 191.137 29.0986C190.752 29.0986 190.406 29.1801 190.1 29.3429C189.798 29.5058 189.559 29.7435 189.382 30.0559C189.209 30.3683 189.123 30.7473 189.123 31.1927Z" fill="#0566AB"/>
<path d="M253.835 0.00305988H243.047C241.901 -0.0106958 240.776 0.310717 239.81 0.927778C240.666 1.47695 241.374 2.22802 241.871 3.11489C242.368 4.00176 242.64 4.99724 242.662 6.01373L242.585 13.6427C242.579 14.6624 242.314 15.6639 241.815 16.5534C241.316 17.4429 240.6 18.1914 239.733 18.7286C240.74 19.3813 241.925 19.7045 243.124 19.6533H253.835C254.636 19.6686 255.432 19.5248 256.177 19.2301C256.922 18.9353 257.6 18.4956 258.174 17.9365C258.747 17.3773 259.204 16.7098 259.518 15.9727C259.831 15.2356 259.995 14.4436 260 13.6427V6.01373C259.995 5.21277 259.831 4.42076 259.518 3.68367C259.204 2.94658 258.747 2.27909 258.174 1.71993C257.6 1.16076 256.922 0.72106 256.177 0.426337C255.432 0.131615 254.636 -0.0122608 253.835 0.00305988V0.00305988Z" fill="#7EA2D1"/>
<path d="M239.811 0.935475C238.823 0.304922 237.67 -0.0194684 236.497 0.00305088H225.709C224.532 0.0136484 223.382 0.361282 222.396 1.00483C223.22 1.56146 223.902 2.30552 224.384 3.17611C224.866 4.04671 225.135 5.0191 225.17 6.01372V13.6426C225.188 14.6476 224.941 15.6395 224.454 16.5188C223.967 17.398 223.257 18.1336 222.396 18.6515C223.411 19.294 224.585 19.6409 225.786 19.6533H236.42C237.587 19.6407 238.73 19.3218 239.734 18.7286C240.601 18.1914 241.317 17.4429 241.816 16.5534C242.314 15.6639 242.579 14.6624 242.585 13.6426L242.662 6.01372C242.639 4.99855 242.367 4.00462 241.87 3.1192C241.373 2.23377 240.666 1.48392 239.811 0.935475V0.935475Z" fill="#0066AC"/>
<path d="M222.395 1.01144C221.38 0.366257 220.206 0.0166734 219.004 0.00195314L208.216 0.00195314C206.614 0.00182485 205.077 0.63262 203.938 1.75768C202.799 2.88274 202.148 4.41145 202.128 6.01262V13.7186C202.168 15.3197 202.838 16.8404 203.992 17.9511C205.146 19.0618 206.691 19.673 208.293 19.6522H219.004C220.205 19.6398 221.38 19.2929 222.395 18.6504C223.256 18.1325 223.966 17.3969 224.453 16.5177C224.94 15.6384 225.187 14.6465 225.169 13.6416V6.02033C225.153 5.02181 224.892 4.04248 224.408 3.16888C223.924 2.29528 223.233 1.5543 222.395 1.01144V1.01144Z" fill="#00458A"/>
<path d="M242.583 13.6494L242.66 6.02052C242.638 5.00403 242.367 4.00855 241.87 3.12168C241.372 2.23481 240.665 1.48374 239.809 0.93457C238.942 1.47182 238.226 2.22024 237.728 3.10975C237.229 3.99927 236.964 5.00078 236.958 6.02052V13.7265C236.992 14.7211 237.261 15.6935 237.744 16.5641C238.226 17.4347 238.907 18.1788 239.732 18.7354C240.599 18.1982 241.315 17.4497 241.814 16.5602C242.313 15.6707 242.577 14.6692 242.583 13.6494Z" fill="#00539F"/>
<path d="M225.168 13.6515V6.02256C225.153 5.02404 224.892 4.04471 224.408 3.17111C223.924 2.29751 223.232 1.55654 222.394 1.01367C221.557 1.55803 220.867 2.29933 220.383 3.1726C219.9 4.04587 219.638 5.02445 219.62 6.02256V13.7286C219.645 14.7145 219.911 15.6792 220.395 16.5388C220.879 17.3984 221.565 18.1268 222.394 18.6604C223.256 18.1424 223.965 17.4069 224.452 16.5276C224.939 15.6484 225.186 14.6564 225.168 13.6515V13.6515Z" fill="#00327B"/>
</g>
<defs>
<clipPath id="clip0_8000_202036">
<rect width="260" height="39" fill="white"/>
</clipPath>
</defs>
</svg>
